<svg width="512" height="512" viewBox="0 0 512 512" fill="none" xmlns="http://www.w3.org/2000/svg">
    <g clip-path="url(#clip0_1_2)">
        <path d="M122.957 44.7635C124.977 41.2662 125.986 39.5175 127.399 38.2458C128.648 37.1205 130.121 36.2705 131.72 35.7509C133.528 35.1635 135.547 35.1635 139.585 35.1635L372.415 35.1635C376.453 35.1635 378.472 35.1635 380.28 35.7509C381.879 36.2705 383.352 37.1205 384.601 38.2458C386.014 39.5175 387.023 41.2662 389.043 44.7635L505.457 246.4C507.477 249.897 508.486 251.646 508.881 253.505C509.231 255.15 509.231 256.85 508.881 258.495C508.486 260.354 507.477 262.103 505.457 265.6L389.043 467.236C387.023 470.734 386.014 472.482 384.601 473.754C383.352 474.879 381.879 475.73 380.28 476.249C378.472 476.836 376.453 476.836 372.415 476.836L139.585 476.836C135.547 476.836 133.528 476.836 131.72 476.249C130.121 475.729 128.648 474.879 127.399 473.754C125.986 472.482 124.977 470.734 122.957 467.236L6.54257 265.6C4.52339 262.103 3.5138 260.354 3.11864 258.495C2.769 256.85 2.769 255.15 3.11864 253.505C3.5138 251.646 4.52339 249.897 6.54256 246.4L122.957 44.7635Z"
              fill="#0099FF"/>
        <path d="M246.4 71.5426C249.897 69.5234 251.646 68.5138 253.505 68.1186C255.15 67.769 256.85 67.769 258.495 68.1186C260.354 68.5138 262.103 69.5234 265.6 71.5426L410.945 155.457C414.442 157.477 416.191 158.486 417.463 159.899C418.588 161.148 419.438 162.621 419.958 164.22C420.545 166.028 420.545 168.047 420.545 172.085V339.915C420.545 343.953 420.545 345.972 419.958 347.78C419.438 349.379 418.588 350.852 417.463 352.101C416.191 353.514 414.442 354.523 410.945 356.543L265.6 440.457C262.103 442.477 260.354 443.486 258.495 443.881C256.85 444.231 255.15 444.231 253.505 443.881C251.646 443.486 249.897 442.477 246.4 440.457L101.055 356.543C97.5578 354.523 95.8092 353.514 94.5374 352.101C93.4122 350.852 92.5622 349.379 92.0425 347.78C91.4552 345.972 91.4552 343.953 91.4552 339.915L91.4552 172.085C91.4552 168.047 91.4552 166.028 92.0425 164.22C92.5622 162.621 93.4122 161.148 94.5374 159.899C95.8092 158.486 97.5578 157.477 101.055 155.457L246.4 71.5426Z"
              fill="white"/>
        <path d="M246.4 121.543C249.897 119.523 251.646 118.514 253.505 118.119C255.15 117.769 256.85 117.769 258.495 118.119C260.354 118.514 262.103 119.523 265.6 121.543L367.644 180.457C371.141 182.477 372.89 183.486 374.161 184.899C375.287 186.148 376.137 187.621 376.656 189.22C377.244 191.028 377.244 193.047 377.244 197.085V314.915C377.244 318.953 377.244 320.972 376.656 322.78C376.137 324.379 375.287 325.852 374.161 327.101C372.89 328.514 371.141 329.523 367.644 331.543L265.6 390.457C262.103 392.477 260.354 393.486 258.495 393.881C256.85 394.231 255.15 394.231 253.505 393.881C251.646 393.486 249.897 392.477 246.4 390.457L144.356 331.543C140.859 329.523 139.11 328.514 137.839 327.101C136.713 325.852 135.863 324.379 135.344 322.78C134.756 320.972 134.756 318.953 134.756 314.915V197.085C134.756 193.047 134.756 191.028 135.344 189.22C135.863 187.621 136.713 186.148 137.839 184.899C139.11 183.486 140.859 182.477 144.356 180.457L246.4 121.543Z"
              fill="#0099FF" fill-opacity="0.3"/>
        <path d="M237.404 316.156C238.029 315.082 239.055 314.301 240.255 313.983C241.456 313.665 242.734 313.837 243.808 314.461L263.299 325.833C268.931 317.755 276.275 311.02 284.809 306.107C292.79 301.499 301.325 298.715 309.929 297.623L309.837 276.35C309.808 275.72 309.908 275.09 310.129 274.499C310.35 273.908 310.688 273.367 311.123 272.91C311.558 272.453 312.081 272.088 312.66 271.838C313.239 271.587 313.863 271.457 314.494 271.453C315.126 271.45 315.751 271.574 316.333 271.818C316.915 272.062 317.441 272.421 317.881 272.874C318.321 273.327 318.665 273.864 318.892 274.452C319.12 275.041 319.226 275.67 319.204 276.3L319.306 297.102C329.81 297.244 340.133 299.847 349.449 304.702C358.764 309.557 366.811 316.528 372.944 325.056C373.325 325.588 373.591 326.193 373.724 326.833C373.857 327.473 373.854 328.134 373.716 328.773C373.579 329.412 373.309 330.016 372.924 330.544C372.54 331.073 372.048 331.515 371.483 331.843L263.76 394.037C263.193 394.364 262.563 394.568 261.912 394.637C261.261 394.705 260.603 394.637 259.98 394.436C259.357 394.234 258.783 393.905 258.295 393.468C257.807 393.032 257.416 392.498 257.147 391.901C253.017 382.743 250.994 372.776 251.226 362.733C251.459 352.69 253.941 342.827 258.489 333.871L239.086 322.557C238.013 321.93 237.232 320.903 236.916 319.701C236.599 318.499 236.773 317.221 237.399 316.148L237.404 316.156Z"
              fill="white"/>
        <circle cx="280.291" cy="354.31" r="6.255" transform="rotate(-30 280.291 354.31)" fill="#0099FF"
                fill-opacity="0.3"/>
        <path d="M334.477 330.132C334.309 330.634 333.751 330.956 333.232 330.851L325.257 329.243C324.738 329.139 324.454 328.648 324.623 328.145L327.217 320.435C327.301 320.184 327.483 319.978 327.709 319.848C327.934 319.718 328.204 319.663 328.463 319.715C328.982 319.819 329.267 320.311 329.097 320.814L326.808 327.615L333.843 329.034C334.362 329.139 334.645 329.63 334.477 330.133L334.477 330.132Z"
              fill="#0099FF" fill-opacity="0.3"/>
    </g>
    <defs>
        <clipPath id="clip0_1_2">
            <rect width="512" height="512" fill="white"/>
        </clipPath>
    </defs>
</svg>
