<svg width="512" height="512" viewBox="0 0 512 512" fill="none" xmlns="http://www.w3.org/2000/svg">
    <path d="M246.4 121.543C249.897 119.523 251.646 118.514 253.505 118.119C255.15 117.769 256.85 117.769 258.495 118.119C260.354 118.514 262.103 119.523 265.6 121.543L367.644 180.457C371.141 182.477 372.89 183.486 374.161 184.899C375.287 186.148 376.137 187.621 376.656 189.22C377.244 191.028 377.244 193.047 377.244 197.085V314.915C377.244 318.953 377.244 320.972 376.656 322.78C376.137 324.379 375.287 325.852 374.161 327.101C372.89 328.514 371.141 329.523 367.644 331.543L265.6 390.457C262.103 392.477 260.354 393.486 258.495 393.881C256.85 394.231 255.15 394.231 253.505 393.881C251.646 393.486 249.897 392.477 246.4 390.457L144.356 331.543C140.859 329.523 139.11 328.514 137.839 327.101C136.713 325.852 135.863 324.379 135.344 322.78C134.756 320.972 134.756 318.953 134.756 314.915V197.085C134.756 193.047 134.756 191.028 135.344 189.22C135.863 187.621 136.713 186.148 137.839 184.899C139.11 183.486 140.859 182.477 144.356 180.457L246.4 121.543Z"
          fill="#0099FF" fill-opacity="0.3"/>
</svg>