<svg width="512" height="512" viewBox="0 0 512 512" fill="none" xmlns="http://www.w3.org/2000/svg">
    <g clip-path="url(#clip0_4_2)">
        <path d="M122.957 44.7635C124.977 41.2662 125.986 39.5175 127.399 38.2458C128.648 37.1205 130.121 36.2705 131.72 35.7509C133.528 35.1635 135.547 35.1635 139.585 35.1635L372.415 35.1635C376.453 35.1635 378.472 35.1635 380.28 35.7509C381.879 36.2705 383.352 37.1205 384.601 38.2458C386.014 39.5175 387.023 41.2662 389.043 44.7635L505.457 246.4C507.477 249.897 508.486 251.646 508.881 253.505C509.231 255.15 509.231 256.85 508.881 258.495C508.486 260.354 507.477 262.103 505.457 265.6L389.043 467.236C387.023 470.734 386.014 472.482 384.601 473.754C383.352 474.879 381.879 475.73 380.28 476.249C378.472 476.836 376.453 476.836 372.415 476.836L139.585 476.836C135.547 476.836 133.528 476.836 131.72 476.249C130.121 475.729 128.648 474.879 127.399 473.754C125.986 472.482 124.977 470.734 122.957 467.236L6.54256 265.6C4.52338 262.103 3.51379 260.354 3.11863 258.495C2.76899 256.85 2.769 255.15 3.11863 253.505C3.51379 251.646 4.52338 249.897 6.54256 246.4L122.957 44.7635Z"
              fill="#0099FF"/>
    </g>
    <defs>
        <clipPath id="clip0_4_2">
            <rect width="512" height="512" fill="white"/>
        </clipPath>
    </defs>
</svg>
