<svg width="512" height="512" viewBox="0 0 512 512" fill="none" xmlns="http://www.w3.org/2000/svg">
    <path d="M246.4 71.5426C249.897 69.5234 251.646 68.5138 253.505 68.1186C255.15 67.769 256.85 67.769 258.495 68.1186C260.354 68.5138 262.103 69.5234 265.6 71.5426L410.945 155.457C414.442 157.477 416.191 158.486 417.463 159.899C418.588 161.148 419.438 162.621 419.958 164.22C420.545 166.028 420.545 168.047 420.545 172.085V339.915C420.545 343.953 420.545 345.972 419.958 347.78C419.438 349.379 418.588 350.852 417.463 352.101C416.191 353.514 414.442 354.523 410.945 356.543L265.6 440.457C262.103 442.477 260.354 443.486 258.495 443.881C256.85 444.231 255.15 444.231 253.505 443.881C251.646 443.486 249.897 442.477 246.4 440.457L101.055 356.543C97.5578 354.523 95.8092 353.514 94.5374 352.101C93.4122 350.852 92.5622 349.379 92.0425 347.78C91.4552 345.972 91.4552 343.953 91.4552 339.915L91.4552 172.085C91.4552 168.047 91.4552 166.028 92.0425 164.22C92.5622 162.621 93.4122 161.148 94.5374 159.899C95.8092 158.486 97.5578 157.477 101.055 155.457L246.4 71.5426Z"
          fill="white"/>
</svg>