<svg width="512" height="512" viewBox="0 0 512 512" fill="none" xmlns="http://www.w3.org/2000/svg">
    <path d="M236.404 314.156C237.029 313.082 238.055 312.301 239.255 311.983C240.456 311.665 241.734 311.837 242.808 312.461L262.299 323.833C267.931 315.755 275.275 309.02 283.809 304.107C291.79 299.499 300.325 296.715 308.929 295.623L308.837 274.35C308.808 273.72 308.908 273.09 309.129 272.499C309.35 271.908 309.688 271.367 310.123 270.91C310.558 270.453 311.081 270.088 311.66 269.838C312.239 269.587 312.863 269.457 313.494 269.453C314.126 269.45 314.751 269.574 315.333 269.818C315.915 270.062 316.441 270.421 316.881 270.874C317.321 271.327 317.665 271.864 317.892 272.452C318.12 273.041 318.226 273.67 318.204 274.3L318.306 295.102C328.81 295.244 339.133 297.847 348.449 302.702C357.764 307.557 365.811 314.528 371.944 323.056C372.325 323.588 372.591 324.193 372.724 324.833C372.857 325.473 372.854 326.134 372.716 326.773C372.579 327.412 372.309 328.016 371.924 328.544C371.54 329.073 371.048 329.515 370.483 329.843L262.76 392.037C262.193 392.364 261.563 392.568 260.912 392.637C260.261 392.705 259.603 392.637 258.98 392.436C258.357 392.234 257.783 391.905 257.295 391.468C256.807 391.032 256.416 390.498 256.147 389.901C252.017 380.743 249.994 370.776 250.226 360.733C250.459 350.69 252.941 340.827 257.489 331.871L238.086 320.557C237.013 319.93 236.232 318.903 235.916 317.701C235.599 316.499 235.773 315.221 236.399 314.148L236.404 314.156Z"
          fill="white"/>
</svg>